<?xml version="1.0" encoding="UTF-8"?>
<svg id="Layer_2" data-name="Layer 2" xmlns="http://www.w3.org/2000/svg" xmlns:xlink="http://www.w3.org/1999/xlink" viewBox="0 0 59.29 12.11">
  <defs>
    <style>
      .cls-1 {
        stroke: url(#linear-gradient-4);
      }

      .cls-1, .cls-2, .cls-3, .cls-4, .cls-5, .cls-6 {
        stroke-miterlimit: 10;
      }

      .cls-1, .cls-2, .cls-3, .cls-4, .cls-6 {
        fill: none;
      }

      .cls-1, .cls-4 {
        stroke-width: .3px;
      }

      .cls-2 {
        stroke: url(#linear-gradient-7);
      }

      .cls-2, .cls-3, .cls-6 {
        stroke-width: .5px;
      }

      .cls-3 {
        stroke: url(#linear-gradient-6);
      }

      .cls-4 {
        stroke: url(#linear-gradient-3);
      }

      .cls-7 {
        fill: url(#linear-gradient-5);
      }

      .cls-5 {
        fill: url(#linear-gradient);
        stroke: url(#linear-gradient-2);
      }

      .cls-6 {
        stroke: url(#linear-gradient-8);
      }
    </style>
    <linearGradient id="linear-gradient" x1="29.55" y1="11.61" x2="29.55" y2=".5" gradientUnits="userSpaceOnUse">
      <stop offset="0" stop-color="#861625"/>
      <stop offset=".53" stop-color="#6d1223"/>
      <stop offset="1" stop-color="#540f22"/>
    </linearGradient>
    <linearGradient id="linear-gradient-2" x1="2.43" y1="6.05" x2="56.66" y2="6.05" gradientUnits="userSpaceOnUse">
      <stop offset="0" stop-color="#861625"/>
      <stop offset="1" stop-color="#4e101f"/>
    </linearGradient>
    <linearGradient id="linear-gradient-3" x1="22.04" y1="10.83" x2="37.01" y2="10.83" gradientUnits="userSpaceOnUse">
      <stop offset="0" stop-color="#e7b39e"/>
      <stop offset="1" stop-color="#8e6a66"/>
    </linearGradient>
    <linearGradient id="linear-gradient-4" x1="22.04" y1="1.3" x2="37.02" y2="1.3" xlink:href="#linear-gradient-3"/>
    <linearGradient id="linear-gradient-5" x1="31.13" y1="9.83" x2="31.13" y2="3.21" gradientUnits="userSpaceOnUse">
      <stop offset="0" stop-color="#8e6a66"/>
      <stop offset=".28" stop-color="#a27b73"/>
      <stop offset=".86" stop-color="#d8a795"/>
      <stop offset="1" stop-color="#e7b39e"/>
    </linearGradient>
    <linearGradient id="linear-gradient-6" x1="0" y1="6.03" x2="59.29" y2="6.03" xlink:href="#linear-gradient-3"/>
    <linearGradient id="linear-gradient-7" x1="2.73" y1="5.87" x2="9.23" y2="5.87" gradientTransform="translate(-.07 .18)" xlink:href="#linear-gradient-3"/>
    <linearGradient id="linear-gradient-8" x1="36.52" y1="39.55" x2="42.66" y2="39.55" gradientTransform="translate(14.11 -33.18)" xlink:href="#linear-gradient-3"/>
  </defs>
  <g id="Layer_4" data-name="Layer 4">
    <path class="cls-5" d="M53.9,11.61H5.19c0-1.25-1.01-2.27-2.27-2.27V2.77c1.25,0,2.27-1.01,2.27-2.27h48.7c0,1.25,1.01,2.27,2.27,2.27v6.57c-1.25,0-2.27,1.01-2.27,2.27Z"/>
  </g>
  <g id="Layer_6" data-name="Layer 6">
    <polyline class="cls-4" points="22.1 11.61 25.67 10.07 33.67 10.07 36.95 11.61"/>
    <polyline class="cls-1" points="36.95 .5 33.67 2.1 25.67 2.1 22.1 .5"/>
    <g>
      <path class="cls-7" d="M17.51,7.54c-.19-.33-.29-.71-.29-1.13s.09-.81.29-1.13c.19-.33.45-.58.79-.77s.72-.28,1.16-.28.83.09,1.16.28c.33.19.6.44.79.77.19.33.29.71.29,1.13s-.1.8-.29,1.13-.45.59-.79.77c-.33.19-.72.28-1.16.28s-.82-.09-1.16-.28-.6-.44-.79-.77ZM20.52,7.06c.1-.19.16-.4.16-.65s-.05-.46-.16-.65-.25-.33-.43-.44c-.18-.11-.4-.16-.64-.16s-.45.05-.64.16c-.18.11-.33.25-.44.44s-.16.4-.16.65.05.46.16.65.25.33.44.44.4.16.64.16.46-.05.64-.16c.18-.11.33-.25.43-.44Z"/>
      <path class="cls-7" d="M22.29,4.34h1.54c.52,0,.92.11,1.21.34.29.23.43.55.43.95s-.14.75-.41,1.01c-.27.26-.71.48-1.32.65l-.49.14v1.04h-.96v-4.14ZM23.57,6.45c.32-.09.56-.19.7-.31.14-.12.22-.27.22-.46,0-.16-.06-.28-.18-.37-.12-.09-.29-.13-.51-.13h-.54v1.35l.31-.08Z"/>
      <path class="cls-7" d="M26.83,5.22h-1.1v-.88h3.17v.88h-1.1v3.26h-.96v-3.26Z"/>
      <path class="cls-7" d="M29.41,4.34h.96v4.14h-.96v-4.14Z"/>
      <path class="cls-7" d="M31.26,7.54c-.19-.33-.29-.71-.29-1.13s.09-.81.29-1.13c.19-.33.45-.58.79-.77s.72-.28,1.16-.28.83.09,1.16.28c.33.19.6.44.79.77.19.33.29.71.29,1.13s-.1.8-.29,1.13-.45.59-.79.77c-.33.19-.72.28-1.16.28s-.82-.09-1.16-.28-.6-.44-.79-.77ZM34.28,7.06c.1-.19.16-.4.16-.65s-.05-.46-.16-.65-.25-.33-.43-.44c-.18-.11-.4-.16-.64-.16s-.45.05-.64.16c-.18.11-.33.25-.44.44s-.16.4-.16.65.05.46.16.65.25.33.44.44.4.16.64.16.46-.05.64-.16c.18-.11.33-.25.43-.44Z"/>
      <path class="cls-7" d="M36.05,4.25h.06l2.17,1.69v-1.6h.96v4.14h-.96v-1.42l-1.27-1.03v2.45h-.96v-4.23Z"/>
      <path class="cls-7" d="M39.93,7.58c.09.02.2.04.32.06.12.01.23.02.33.02.18,0,.32-.03.42-.1.1-.07.15-.17.15-.29,0-.1-.03-.2-.1-.29s-.18-.19-.35-.3l-.25-.17c-.41-.3-.62-.64-.62-1.04,0-.37.14-.65.42-.86.28-.21.66-.31,1.15-.31.09,0,.19,0,.29.02.11.01.18.02.22.03v.85c-.05,0-.12-.02-.2-.02-.08,0-.16-.01-.24-.01-.18,0-.31.03-.41.09-.1.06-.15.14-.15.25,0,.08.03.15.08.21.05.06.15.14.29.24l.25.17c.46.33.68.72.68,1.18,0,.38-.14.69-.41.91-.27.22-.65.33-1.12.33-.13,0-.27,0-.41-.03s-.26-.04-.35-.06v-.85Z"/>
    </g>
  </g>
  <g id="Layer_5" data-name="Layer 5">
    <polygon class="cls-3" points=".35 6.01 5.91 11.56 29.55 11.61 53.39 11.61 58.94 6.05 53.39 .5 5.91 .46 .35 6.01"/>
  </g>
  <g id="Layer_10" data-name="Layer 10">
    <rect class="cls-2" x="2.91" y="3.06" width="6" height="6" transform="translate(-2.55 5.95) rotate(-45)"/>
    <rect class="cls-6" x="50.59" y="3.26" width="5.6" height="5.6" transform="translate(11.35 39.53) rotate(-45)"/>
  </g>
</svg>